<?xml version="1.0" encoding="utf-8"?>
<!DOCTYPE svg PUBLIC "-//W3C//DTD SVG 20010904//EN" "http://www.w3.org/TR/2001/REC-SVG-20010904/DTD/svg10.dtd">
<svg version="1.0" xmlns="http://www.w3.org/2000/svg" width="96px" height="96px" viewBox="0 0 96 96" preserveAspectRatio="xMidYMid meet">
 <g fill="#b0622b">
  <path d="M18 86 c-1.9 -1.9 -2 -3.3 -2 -38 0 -43.7 -1.4 -40 15.4 -40 8.9 0 11.6 -0.3 12.6 -1.5 1.6 -1.9 6.4 -1.9 8 0 1 1.2 3.7 1.5 12.6 1.5 16.8 0 15.4 -3.7 15.4 40 0 34.7 -0.1 36.1 -2 38 -1.9 1.9 -3.3 2 -30 2 -26.7 0 -28.1 -0.1 -30 -2z m32 -76 c0 -1.3 -0.7 -2 -2 -2 -1.3 0 -2 0.7 -2 2 0 1.3 0.7 2 2 2 1.3 0 2 -0.7 2 -2z"/>
 </g>
 <g fill="#bc6d36">
  <path d="M20.7 83.3 c-0.4 -0.3 -0.7 -3.3 -0.7 -6.5 0 -5.1 -0.2 -5.8 -2 -5.8 -2 0 -2 -0.7 -2 -29.5 0 -36.2 -1.2 -33.5 15.4 -33.5 8.9 0 11.6 -0.3 12.6 -1.5 1.6 -1.9 6.4 -1.9 8 0 1 1.2 3.7 1.5 12.6 1.5 16.2 0 15.4 -1.3 15.4 24 0 19.2 -0.1 20 -2 20 -1.8 0 -2 0.8 -2.2 15.8 l-0.3 15.7 -27.1 0.3 c-14.9 0.1 -27.3 -0.1 -27.7 -0.5z m29.3 -73.3 c0 -1.3 -0.7 -2 -2 -2 -1.3 0 -2 0.7 -2 2 0 1.3 0.7 2 2 2 1.3 0 2 -0.7 2 -2z"/>
 </g>
 <g fill="#c5753e">
  <path d="M20.7 83.3 c-0.4 -0.3 -0.7 -12.5 -0.7 -27.1 0 -25.9 0 -26.4 -2 -25.9 -1.9 0.5 -2 0 -2 -8.9 0 -13.1 0.4 -13.4 15.4 -13.4 8.9 0 11.6 -0.3 12.6 -1.5 1.6 -1.9 6.4 -1.9 8 0 1 1.2 3.7 1.5 12.2 1.5 11.6 0 16.3 1.2 13.4 3.3 -1.4 1.1 -1.6 5.7 -1.8 36.7 l-0.3 35.5 -27.1 0.3 c-14.9 0.1 -27.3 -0.1 -27.7 -0.5z m29.3 -73.3 c0 -1.3 -0.7 -2 -2 -2 -1.3 0 -2 0.7 -2 2 0 1.3 0.7 2 2 2 1.3 0 2 -0.7 2 -2z"/>
 </g>
 <g fill="#c0c0c0">
  <path d="M20.5 82.8 c-0.3 -0.7 -0.4 -16.8 -0.3 -35.8 l0.3 -34.5 6.8 -0.3 c5.9 -0.3 6.7 -0.5 6.7 -2.2 0 -1.7 0.7 -2 4.4 -2 2.6 0 4.8 -0.6 5.6 -1.5 1.6 -1.9 6.4 -1.9 8 0 0.8 0.9 3 1.5 5.6 1.5 3.7 0 4.4 0.3 4.4 2 0 1.7 0.8 1.9 6.8 2.2 l6.7 0.3 0 35.5 0 35.5 -27.3 0.3 c-21.3 0.2 -27.4 0 -27.7 -1z m29.5 -72.8 c0 -1.3 -0.7 -2 -2 -2 -1.3 0 -2 0.7 -2 2 0 1.3 0.7 2 2 2 1.3 0 2 -0.7 2 -2z"/>
 </g>
 <g fill="#cdcdcd">
  <path d="M20.5 82.8 c-0.3 -0.7 -0.4 -16.8 -0.3 -35.8 l0.3 -34.5 6.7 -0.3 c6.6 -0.3 6.7 -0.3 7 2.5 0.3 2.8 0.3 2.8 8.6 3.1 4.8 0.2 8.2 -0.1 8.2 -0.7 0 -0.5 2.5 -1.5 5.5 -2.2 3 -0.7 5.5 -1.6 5.5 -2.1 0 -0.5 3 -0.8 6.8 -0.6 l6.7 0.3 0 35.5 0 35.5 -27.3 0.3 c-21.3 0.2 -27.4 0 -27.7 -1z"/>
 </g>
 <g fill="#f3f3f3">
  <path d="M20.2 46.3 l0.3 -33.8 6.7 -0.3 c6.6 -0.3 6.7 -0.3 7 2.5 l0.3 2.8 12.3 0.3 c12.8 0.3 15.2 -0.4 15.2 -4.3 0 -1.3 1.1 -1.5 6.8 -1.3 l6.7 0.3 0.3 33.8 0.2 33.7 -28 0 -28 0 0.2 -33.7z"/>
 </g>
 <g fill="#21a366">
  <path d="M36.5 57 l-6.9 -7 2.2 -2.2 2.2 -2.2 5 4.9 5 4.9 9 -8.9 9.1 -8.8 2.2 2.1 2.2 2.2 -11 11 c-6 6.1 -11.2 11 -11.5 11 -0.3 0 -3.7 -3.1 -7.5 -7z"/>
 </g>
</svg>