<?xml version="1.0" encoding="utf-8"?>
<!DOCTYPE svg PUBLIC "-//W3C//DTD SVG 20010904//EN" "http://www.w3.org/TR/2001/REC-SVG-20010904/DTD/svg10.dtd">
<svg version="1.0" xmlns="http://www.w3.org/2000/svg" width="1024px" height="1024px" viewBox="0 0 1024 1024" preserveAspectRatio="xMidYMid meet">
 <g fill="#b7ddf9">
  <path d="M536.5 818 c-97.7 -1.1 -158.7 -3.5 -187.9 -7.6 -16.3 -2.3 -18.4 -3.5 -12.3 -7.2 9.1 -5.6 23.9 -8 56.7 -9.2 28.8 -1 37.1 -2.3 47.5 -7.5 10.6 -5.2 16.1 -11.6 36.9 -43 l18.6 -28 -14.8 -14.4 c-8.1 -7.9 -20.4 -19.9 -27.4 -26.7 -20.2 -19.7 -33.9 -39.7 -40.3 -58.7 -1.7 -5.1 -2.9 -11.9 -3.6 -19.5 -0.8 -8.8 -1.6 -12.7 -3.2 -15.7 -6.3 -11.4 -27.1 -16.5 -103.2 -25 -64.1 -7.1 -81.4 -8 -98.2 -5.1 -11.1 2 -17.2 5.1 -28.3 14.6 -19.9 16.8 -40 23.3 -72 23.3 -16.1 -0.1 -23.8 -0.9 -37.9 -4.4 -25.6 -6.4 -43.4 -19.1 -53.3 -38.5 -9.5 -18.4 -13.2 -34.6 -13.2 -58.9 0 -18.1 1.7 -29.3 6.6 -43.8 4.8 -14.5 9.3 -22.2 18.2 -31.5 9 -9.4 18.3 -15 33.3 -20 14.5 -4.9 25.7 -6.6 43.8 -6.6 33.4 0 55.8 7.7 77.5 26.5 21.3 18.4 34.5 22 90 24 49.2 1.8 94.4 -0.1 117.2 -5.1 9.3 -2 13.9 -3.9 17.6 -7.4 3.5 -3.1 4.2 -4.8 5.3 -13.6 1.1 -9.4 3.4 -15.2 9.3 -23.4 9.5 -13.2 19.5 -21.2 40.8 -32.5 13 -6.9 24.7 -11.5 35.2 -13.7 14 -3 41.5 -5.5 69.6 -6.4 30.4 -1 36.5 -1.7 41.6 -5.2 7.2 -4.9 8.4 -11.3 8.4 -46.4 l0 -25.1 -133.7 -0.6 c-152 -0.8 -190.1 -1.8 -225.9 -6.3 -30.4 -3.8 -32.2 -8 -4.9 -11.9 29.8 -4.1 61.2 -5.3 170.5 -6.5 122.8 -1.3 158 -2.7 181.5 -7.6 11.2 -2.3 14.8 -4.4 19.2 -11.1 2.1 -3.2 4.6 -5.9 5.5 -6.1 1 -0.2 2.8 1.8 5.3 5.9 4.4 7.1 7.8 9.1 20.3 11.5 24.1 4.7 58.8 6.2 180.7 7.4 121.7 1.3 157.6 3 181.8 8.6 11 2.6 10 5 -3 7.7 -29.2 6.2 -108.1 8.6 -285.1 8.7 l-87.4 0 0.4 28.8 c0.3 27.9 0.4 28.8 2.7 33.6 4.7 9.5 13.9 13.4 44.1 18.6 21.7 3.8 30.3 5.8 49.4 11.6 19.8 6 29.8 10 49.1 19.5 20.8 10.2 37.3 19.7 56.5 32.5 66.3 44.2 99.5 91.5 105.1 150.2 3.3 33.5 -7.1 73.7 -25 97.4 -10.9 14.3 -29.6 29.2 -47.6 37.8 -17.8 8.6 -44.3 16.8 -61.2 19.1 -5.1 0.7 -9.3 1.6 -9.3 1.9 0 1.4 50.1 50.2 56.5 54.9 10.3 7.7 24.3 14.3 30.8 14.5 10.5 0.2 28.5 -11.4 35 -22.8 1.4 -2.3 3.4 -7 4.6 -10.6 5.5 -16.5 11 -22.8 21.8 -25 7.9 -1.7 18.7 -0.8 22.1 1.8 4.2 3.1 3.7 11.3 -1.8 27.2 -8.1 23.7 -15.5 37.3 -27.1 49.5 -8.5 8.9 -13.2 11.1 -27.7 13 -49.4 6.6 -214.8 10.3 -381.7 8.5z m181.5 -25 c47.3 -1 91.4 -2.7 98.4 -3.9 l3.8 -0.6 -21.8 -22.4 c-12.1 -12.4 -25.1 -25.2 -29.1 -28.6 -19.6 -16.7 -35.9 -20 -104 -21.1 -43 -0.7 -87.6 0.7 -101.8 3.1 -12.2 2.1 -21.7 6.8 -28.4 14.1 -4.2 4.6 -34.6 53.2 -36.7 58.8 -0.6 1.5 6.7 1.6 86.2 1.6 47.8 0 107.8 -0.5 133.4 -1z"/>
 </g>
 <g fill="#4f5d73">
  <path d="M536.5 818 c-97.7 -1.1 -158.7 -3.5 -187.9 -7.6 -16.3 -2.3 -18.4 -3.5 -12.3 -7.2 9.1 -5.6 23.9 -8 56.7 -9.2 28.8 -1 37.1 -2.3 47.5 -7.5 10.6 -5.2 16.1 -11.6 36.9 -43 l18.6 -28 -14.8 -14.4 c-8.1 -7.9 -20.4 -19.9 -27.4 -26.7 -20.2 -19.7 -33.9 -39.7 -40.3 -58.7 -1.7 -5.1 -2.9 -11.9 -3.6 -19.5 -0.8 -8.8 -1.6 -12.7 -3.2 -15.7 -6.3 -11.4 -27.1 -16.5 -103.2 -25 -64.1 -7.1 -81.4 -8 -98.2 -5.1 -11.1 2 -17.2 5.1 -28.3 14.6 -19.9 16.8 -40 23.3 -72 23.3 -16.1 -0.1 -23.8 -0.9 -37.9 -4.4 -25.6 -6.4 -43.4 -19.1 -53.3 -38.5 -9.5 -18.4 -13.2 -34.6 -13.2 -58.9 0 -18.1 1.7 -29.3 6.6 -43.8 4.8 -14.5 9.3 -22.2 18.2 -31.5 9 -9.4 18.3 -15 33.3 -20 14.5 -4.9 25.7 -6.6 43.8 -6.6 33.4 0 55.8 7.7 77.5 26.5 21.3 18.4 34.5 22 90 24 49.2 1.8 94.4 -0.1 117.2 -5.1 9.3 -2 13.9 -3.9 17.6 -7.4 3.5 -3.1 4.2 -4.8 5.3 -13.6 1.1 -9.4 3.4 -15.2 9.3 -23.4 9.5 -13.2 19.5 -21.2 40.8 -32.5 13 -6.9 24.7 -11.5 35.2 -13.7 14 -3 41.5 -5.5 69.6 -6.4 30.4 -1 36.5 -1.7 41.6 -5.2 7.2 -4.9 8.4 -11.3 8.4 -46.4 l0 -25.1 -133.7 -0.6 c-152 -0.8 -190.1 -1.8 -225.9 -6.3 -30.4 -3.8 -32.2 -8 -4.9 -11.9 29.8 -4.1 61.2 -5.3 170.5 -6.5 122.8 -1.3 158 -2.7 181.5 -7.6 11.2 -2.3 14.8 -4.4 19.2 -11.1 2.1 -3.2 4.6 -5.9 5.5 -6.1 1 -0.2 2.8 1.8 5.3 5.9 4.4 7.1 7.8 9.1 20.3 11.5 24.1 4.7 58.8 6.2 180.7 7.4 121.7 1.3 157.6 3 181.8 8.6 11 2.6 10 5 -3 7.7 -29.2 6.2 -108.1 8.6 -285.1 8.7 l-87.4 0 0.4 28.8 c0.3 27.9 0.4 28.8 2.7 33.6 4.7 9.5 13.9 13.4 44.1 18.6 21.7 3.8 30.3 5.8 49.4 11.6 19.8 6 29.8 10 49.1 19.5 20.8 10.2 37.3 19.7 56.5 32.5 66.3 44.2 99.5 91.5 105.1 150.2 3.3 33.5 -7.1 73.7 -25 97.4 -10.9 14.3 -29.6 29.2 -47.6 37.8 -17.8 8.6 -44.3 16.8 -61.2 19.1 -5.1 0.7 -9.3 1.6 -9.3 1.9 0 1.4 50.1 50.2 56.5 54.9 10.3 7.7 24.3 14.3 30.8 14.5 10.5 0.2 28.5 -11.4 35 -22.8 1.4 -2.3 3.4 -7 4.6 -10.6 5.5 -16.5 11 -22.8 21.8 -25 7.9 -1.7 18.7 -0.8 22.1 1.8 4.2 3.1 3.7 11.3 -1.8 27.2 -8.1 23.7 -15.5 37.3 -27.1 49.5 -8.5 8.9 -13.2 11.1 -27.7 13 -49.4 6.6 -214.8 10.3 -381.7 8.5z m181.5 -25 c47.3 -1 91.4 -2.7 98.4 -3.9 l3.8 -0.6 -21.8 -22.4 c-12.1 -12.4 -25.1 -25.2 -29.1 -28.6 -19.6 -16.7 -35.9 -20 -104 -21.1 -43 -0.7 -87.6 0.7 -101.8 3.1 -12.2 2.1 -21.7 6.8 -28.4 14.1 -4.2 4.6 -34.6 53.2 -36.7 58.8 -0.6 1.5 6.7 1.6 86.2 1.6 47.8 0 107.8 -0.5 133.4 -1z m142.4 -147.5 c13.1 -1.6 25 -12.3 42.3 -38 6.9 -10.3 12.1 -22.4 14 -32.5 1.2 -6.5 0.5 -24.3 -1.1 -30.5 -0.9 -3.3 -1.9 -6.9 -2.1 -8 -0.3 -1 -1.2 -3.5 -2.1 -5.5 -8.1 -17.9 -20.1 -35.5 -35.5 -51.8 -17.5 -18.5 -31.6 -30.2 -56.9 -47.4 -41 -28 -98.4 -57 -118.6 -60.1 -5.2 -0.8 -5.1 -1.1 -6.4 18.8 -0.5 8.3 -1.2 18.4 -1.4 22.5 -0.3 4.1 -0.8 50.8 -1.2 103.6 -0.7 93.9 -0.7 96.2 1.2 96.7 1 0.3 17.2 4 35.9 8.1 18.7 4.1 44.8 10 58 13.1 32.7 7.7 46.7 10.5 55 11.2 3.9 0.3 7.1 0.7 7.3 0.8 0.3 0.2 3.7 -0.1 11.6 -1z m-212.3 -45.5 c4.6 -1.3 7.9 -5.6 10.7 -13.5 2 -6 2.6 -8.6 3.8 -18 0.3 -2.7 0.8 -6.1 1 -7.5 1.1 -7.3 1.9 -62.9 1.9 -128.5 l0 -74 -51.4 -0.3 -51.3 -0.2 0.5 73.2 c0.3 42.7 1 77.5 1.6 83.3 3.8 34.3 9 46.6 25 59.5 14.2 11.4 43.9 26.9 51.6 27 1.7 0 4.6 -0.5 6.6 -1z m-526.1 -40.8 c12.9 -4.6 27 -13.3 27 -16.8 0 -3.8 -10 -8.2 -24.9 -11 -4.6 -0.8 -13.1 -3.1 -18.8 -4.9 -25.2 -8.3 -38.7 -22 -38.4 -39 0.3 -15.6 13.9 -29.1 35.6 -35.3 9.1 -2.6 11.9 -3 24.5 -3.7 30.8 -1.6 33.8 -1.9 36 -4.1 1.3 -1.2 0.7 -2.1 -4.7 -7.2 -11 -10.5 -25.6 -18.9 -41.8 -24.2 -8.9 -2.8 -11 -3.1 -18.5 -2.7 -5.4 0.2 -10.6 1.2 -14.2 2.6 -18 7 -41.4 29.3 -51.2 48.7 -7.3 14.7 -8.5 25.9 -4 39.2 8.7 26.2 31.4 49.7 55.9 58.2 8.5 2.9 9.6 3.1 20.5 2.6 7.9 -0.3 13.2 -1 17 -2.4z"/>
 </g>
 <g fill="#e97d82">
  <path d="M599.5 714.3 c-32.8 -0.5 -82.7 -3.8 -95.5 -6.3 -11.5 -2.2 -24.5 -9.8 -40 -23.6 -18.4 -16.3 -35.2 -36.6 -43.7 -53 -6.4 -12.3 -9.3 -21.9 -10.4 -35.2 -0.8 -8.8 -1.6 -12.7 -3.2 -15.7 -6.4 -11.5 -27.3 -16.5 -103.7 -25 -22.3 -2.4 -44.5 -4.9 -49.5 -5.5 -32.7 -3.8 -83.1 -5.1 -99.8 -2.7 l-9.8 1.4 2.7 -2.8 c4.4 -4.6 2.2 -7.2 -9.5 -11.4 -2.1 -0.7 -7.8 -2.1 -12.6 -3 -36.5 -6.8 -58 -23.2 -57.6 -44 0.3 -15.6 13.9 -29.1 35.6 -35.3 9.1 -2.6 11.9 -3 24.5 -3.7 30.3 -1.6 33.8 -1.9 35.8 -3.9 1.1 -1.1 0.9 -1.8 -1.3 -4.4 -3.5 -4.2 -13.5 -12 -22 -17.1 -9 -5.5 -7.5 -5 6.6 2.2 12.7 6.4 21.2 8.8 39.9 11.4 17.5 2.4 80.3 2.4 127 0 64 -3.3 83.3 -6.3 91.8 -14.1 3.5 -3.1 4.2 -4.8 5.3 -13.6 1.1 -9.4 3.4 -15.2 9.3 -23.4 9.5 -13.2 19.5 -21.2 40.8 -32.5 20.9 -11.1 33.2 -14.5 63.5 -17.7 15.9 -1.6 21.1 -1.7 67.5 -0.6 97.3 2.3 129.9 6.5 169.3 21.9 22.4 8.7 55.6 26.6 81.5 43.9 63.7 42.4 97.4 88.7 104.1 142.8 1.7 14 0.6 42.3 -2.1 54.1 -10.9 47.9 -37.4 77.3 -86 95.3 -31.9 11.9 -50.9 15.1 -112 18.7 -29.5 1.7 -113.2 3.3 -146.5 2.8z m260.9 -68.8 c13.1 -1.6 25 -12.3 42.3 -38 6.9 -10.3 12.1 -22.4 14 -32.5 1.2 -6.5 0.5 -24.3 -1.1 -30.5 -0.9 -3.3 -1.9 -6.9 -2.1 -8 -0.3 -1 -1.2 -3.5 -2.1 -5.5 -8.1 -17.9 -20.1 -35.5 -35.5 -51.8 -17.5 -18.5 -31.6 -30.2 -56.9 -47.4 -41 -28 -98.4 -57 -118.6 -60.1 -5.2 -0.8 -5.1 -1.1 -6.4 18.8 -0.5 8.3 -1.2 18.4 -1.4 22.5 -0.3 4.1 -0.8 50.8 -1.2 103.6 -0.7 93.9 -0.7 96.2 1.2 96.7 1 0.3 17.2 4 35.9 8.1 18.7 4.1 44.8 10 58 13.1 32.7 7.7 46.7 10.5 55 11.2 3.9 0.3 7.1 0.7 7.3 0.8 0.3 0.2 3.7 -0.1 11.6 -1z m-212.3 -45.5 c4.6 -1.3 7.9 -5.6 10.7 -13.5 2 -6 2.6 -8.6 3.8 -18 0.3 -2.7 0.8 -6.1 1 -7.5 1.1 -7.3 1.9 -62.9 1.9 -128.5 l0 -74 -51.4 -0.3 -51.3 -0.2 0.5 73.2 c0.3 42.7 1 77.5 1.6 83.3 3.8 34.3 9 46.6 25 59.5 14.2 11.4 43.9 26.9 51.6 27 1.7 0 4.6 -0.5 6.6 -1z"/>
  <path d="M63.5 549.5 c-10.7 -6.5 -20.9 -17.5 -26.6 -28.6 -3.8 -7.7 -3.7 -8.9 0.2 -1.9 6.6 11.6 18.1 23.7 28.7 30.4 3.6 2.2 5.1 3.6 3.9 3.6 -0.2 0 -2.9 -1.6 -6.2 -3.5z"/>
 </g>
 <g fill="#bc343b">
  <path d="M536.5 818 c-78.2 -0.9 -120.5 -2.2 -162 -5.1 -16.3 -1.1 -35.4 -3.5 -39.1 -5 -10.8 -4 16.3 -8.3 69.1 -10.9 43.6 -2.1 94.7 -3 179 -3 125.2 0 203.9 -1.8 240 -5.5 36.3 -3.8 50.3 -6 67.9 -11.1 12.1 -3.4 19.9 -7.6 26.8 -14.1 6.7 -6.4 9.7 -11.2 12.7 -20.3 5.5 -16.5 11 -22.8 21.8 -25 7.9 -1.7 18.7 -0.8 22.1 1.8 4.2 3.1 3.7 11.3 -1.8 27.2 -8.1 23.7 -15.5 37.3 -27.1 49.5 -8.5 8.9 -13.2 11.1 -27.7 13 -49.4 6.6 -214.8 10.3 -381.7 8.5z"/>
  <path d="M599.5 714.3 c-32.8 -0.5 -82.7 -3.8 -95.5 -6.3 -11.5 -2.2 -24.5 -9.8 -40 -23.6 -18.4 -16.3 -35.2 -36.6 -43.7 -53 -6.4 -12.3 -9.3 -21.9 -10.4 -35.2 -0.8 -8.8 -1.6 -12.7 -3.2 -15.7 -6.4 -11.5 -27.3 -16.5 -103.7 -25 -22.3 -2.4 -44.5 -4.9 -49.5 -5.5 -31.8 -3.6 -79.9 -5.2 -96.7 -3 -5.4 0.7 -10.1 1 -10.3 0.8 -0.3 -0.3 3.2 -2.9 7.8 -5.9 13.4 -8.8 11.8 -10.5 -14.2 -15 -31 -5.4 -42 -9.3 -52.5 -19 -10.5 -9.6 -13.4 -21.3 -8.3 -32.4 4.3 -9.2 17.5 -19.1 30 -22.5 2.6 -0.7 5 -1.6 5.3 -2.1 0.2 -0.4 1.1 -0.6 1.9 -0.2 0.8 0.3 1.5 0 1.5 -0.6 0 -0.6 1 -1.1 2.3 -1 1.2 0 10.1 -0.5 19.7 -1.1 17.9 -1.1 24 -2.2 24 -4.4 0 -2.6 -13.3 -13.7 -24.5 -20.5 -9 -5.5 -7.4 -5 6.6 2.2 12.7 6.4 21.2 8.8 39.9 11.4 17.5 2.4 80.3 2.4 127 0 64 -3.3 83.3 -6.3 91.8 -14.1 3.5 -3.1 4.2 -4.8 5.3 -13.6 1.1 -9.4 3.4 -15.2 9.3 -23.4 9.5 -13.2 19.5 -21.2 40.8 -32.5 20.9 -11.1 33.2 -14.5 63.5 -17.7 15.9 -1.6 21.1 -1.7 67.5 -0.6 97.3 2.3 129.9 6.5 169.3 21.9 22.4 8.7 55.6 26.6 81.5 43.9 63.7 42.4 97.4 88.7 104.1 142.8 1.7 14 0.6 42.3 -2.1 54.1 -10.9 47.9 -37.4 77.3 -86 95.3 -31.9 11.9 -50.9 15.1 -112 18.7 -29.5 1.7 -113.2 3.3 -146.5 2.8z m132.5 -27.2 c42.6 -2.8 64 -7.7 64 -14.7 0 -2.1 -1 -3 -6.2 -5.3 -7.7 -3.5 -17 -5.9 -59.3 -15.5 -66.7 -15.3 -104.1 -27 -136 -42.6 -24.4 -11.9 -38.7 -23.4 -44.5 -35.5 -7.8 -16.5 -11.1 -49.6 -13 -132 -1 -44.1 -1.9 -53.6 -6.1 -61.7 -1.1 -2.1 -3.3 -4.7 -5 -5.7 -15.6 -9.5 -56.4 7.1 -77.1 31.4 -8 9.4 -12.5 18.9 -13.7 28.7 -1.4 12.1 -6 16.6 -21.1 20.8 -31.1 8.6 -126 16 -236.5 18.5 -42.7 1 -67.5 4.6 -73.7 10.9 -1.3 1.2 -1.5 2.3 -0.8 4.7 2.2 7.6 6.4 9.1 32 11.9 10.7 1.1 44.7 5.5 75.5 9.6 150.4 20.2 175.1 23.4 189 24.9 24.8 2.6 23.6 2.3 27.1 6.1 4.6 4.8 7.3 13 8.5 25.2 1.5 16.6 3.8 24.3 11.4 39.4 17.8 35.2 52 68 77.5 74.2 13.9 3.4 39.2 6 74 7.6 23.6 1.1 112.4 0.5 134 -0.9z m135.5 -38.6 c14.3 -3 23.9 -10.1 34.3 -25.3 11.3 -16.5 16.6 -30.5 18.3 -47.9 0.8 -9.3 0.8 -10.9 -0.6 -11.9 -0.8 -0.6 -1.5 -2.6 -1.5 -4.5 0 -2.6 0.3 -3 1 -1.9 0.8 1.2 1 1.1 1 -0.7 0 -1.2 -0.8 -2.7 -1.7 -3.2 -1 -0.6 -1.5 -1.1 -1.1 -1.1 0.4 0 0.3 -1.1 -0.2 -2.4 -0.6 -1.6 -0.5 -2.8 0.3 -3.6 0.9 -1 0.9 -1.1 0 -0.6 -1 0.6 -2.9 -5.9 -2.6 -9.1 0 -0.7 -0.3 -1 -0.8 -0.7 -0.5 0.3 -0.9 0 -0.9 -0.6 0 -0.6 -2.2 -5.8 -4.9 -11.6 -2.8 -5.7 -4.6 -10.2 -4.1 -9.9 0.6 0.3 0.7 -0.1 0.4 -1 -0.4 -0.8 -1.5 -2 -2.5 -2.6 -1.1 -0.5 -1.7 -1.4 -1.4 -2 0.9 -1.3 -11.7 -18.7 -20.2 -28 -27.9 -30.4 -82 -68.6 -132.4 -93.4 -19.7 -9.7 -30.9 -13.7 -39.4 -14.1 -3.3 -0.2 -7.4 -0.6 -9.1 -0.9 -4 -0.7 -4.2 -0.2 -5.4 19 -0.5 8.3 -1.2 18.4 -1.4 22.5 -0.3 4.1 -0.8 50.8 -1.2 103.7 l-0.7 96.3 3.1 0.6 c2.6 0.5 3.3 1.2 3.8 4 0.6 3.2 0.7 3.3 9.8 5.3 5 1.2 25.3 5.7 45.1 10.1 61.8 13.9 78.1 16.7 97.5 16.9 5.8 0 13.6 -0.6 17.5 -1.4z m-204.1 -39.7 c1.4 -13.1 1.8 -38.8 0.7 -38.8 -0.8 0 -1 -1.4 -0.7 -4.2 1.5 -11.2 1.8 -33.1 2 -116.8 l0.1 -90.5 -51.4 -0.3 -51.3 -0.2 0.5 73.7 c0.4 56.4 0.9 76.9 2.1 86.8 1.4 12.2 4.2 28 5.2 29.7 0.3 0.5 0 0.8 -0.5 0.8 -1.2 0 -1.4 14.9 -0.3 18.7 0.5 1.7 5.4 4.6 20 11.8 10.7 5.2 20.1 9.5 21 9.6 0.9 0 5.8 2.2 10.7 4.9 24.1 13.1 37.6 19.8 40.2 19.9 0.7 0.1 1.4 -2 1.7 -5.1z"/>
  <path d="M61.5 548.3 c-9.7 -6.5 -19.5 -17.4 -24.6 -27.4 -3.8 -7.7 -3.7 -8.9 0.2 -1.9 6 10.5 12.8 18 27.4 30.2 3 2.6 1.5 2.1 -3 -0.9z"/>
  <path d="M38.1 450.8 c3.1 -5.9 13.9 -18.2 19.4 -22.1 1.7 -1.1 -0.9 2 -5.6 7 -4.8 4.9 -9.9 10.9 -11.4 13.1 -3 4.5 -4.3 5.6 -2.4 2z"/>
 </g>
 <g fill="#93424d">
  <path d="M822.4 788.8 c-0.3 -0.4 1.5 -0.8 4 -0.8 2.5 0 4.6 0.2 4.6 0.4 0 0.8 -8.2 1.1 -8.6 0.4z"/>
  <path d="M834.3 787.3 c1.5 -0.2 3.9 -0.2 5.5 0 1.5 0.2 0.2 0.4 -2.8 0.4 -3 0 -4.3 -0.2 -2.7 -0.4z"/>
  <path d="M852.4 785.4 c12.2 -1.7 28.2 -4.8 37.2 -7.4 7.8 -2.2 9.5 -2.1 3.2 0.3 -10.3 4 -37.8 8.9 -47.1 8.6 -1.8 -0.1 1.3 -0.7 6.7 -1.5z"/>
  <path d="M599.5 714.3 c-32.8 -0.5 -82.7 -3.8 -95.5 -6.3 -6.3 -1.2 -15.2 -5.2 -23.6 -10.5 -6.5 -4.2 -16.4 -12.4 -16.4 -13.7 0 -0.5 2.6 0.9 5.8 3 18 12.1 32.3 17.5 53.7 20.1 35.6 4.5 108.5 5.5 177 2.5 6.1 -0.3 16.2 -0.7 22.5 -0.9 29.3 -1.3 74.2 -5.2 97 -8.7 20.4 -3 22 -3.2 22 -2 0 2.5 -33.6 8.9 -58.5 11.1 -40.6 3.6 -131.4 6.3 -184 5.4z"/>
  <path d="M396.3 571.7 c-2.2 -1 -3.1 -2.7 -1.5 -2.7 1.2 0 4.8 2.8 4.2 3.3 -0.3 0.2 -1.5 0 -2.7 -0.6z"/>
  <path d="M231.5 547.9 c-15.1 -1.6 -64.3 -2.3 -74.6 -0.9 -5.5 0.7 -10.2 1 -10.5 0.7 -0.3 -0.2 2.9 -2.6 7 -5.1 4.2 -2.6 8.2 -5.6 9 -6.7 1.8 -2.7 12.4 -5.9 19.1 -5.9 4.1 0 6.8 0.8 11.9 3.4 3.6 1.9 9.2 4.3 12.3 5.4 5.6 1.9 27.8 7.2 30.2 7.2 0.7 0 1.9 0.7 2.7 1.5 0.9 0.8 1.2 1.4 0.7 1.3 -0.4 0 -3.9 -0.5 -7.8 -0.9z"/>
  <path d="M473.1 346.6 c1.1 -1 16.2 -5.9 22.4 -7.2 14.7 -3.2 39.5 -5.4 58.5 -5.2 l18.5 0.1 -19.5 0.7 c-26.6 1 -49.3 4.1 -69.8 9.5 -9.5 2.5 -10.9 2.8 -10.1 2.1z"/>
 </g>
</svg>