<svg height="90" preserveAspectRatio="xMidYMid meet" viewBox="0 0 900 900" width="90" xmlns="http://www.w3.org/2000/svg"><g fill="#e9ecef"><path d="m396 830c-27-30-36-49-36-75 0-28 4-35 19-35 11 0 23 9 26 20s15 25 26 30c24 13 55-1 64-30 3-11 15-20 26-20 15 0 19 7 19 35 0 26-9 45-36 75-20 22-44 40-54 40s-34-18-54-40z"/><path d="m208 703c-12-27-23-71-26-100-4-50-3-53 42-101 42-45 46-53 46-99 0-57 22-138 55-203 30-60 102-140 125-140s95 80 125 140c33 65 55 146 55 203 0 45 4 54 45 98 39 42 45 54 45 91-1 45-38 149-55 154-5 2-27-19-48-46-42-55-53-60-62-30-6 18-15 20-105 20s-99-2-105-20c-9-30-20-25-62 30-21 27-42 49-46 50-4 0-18-21-29-47zm280-335c7-7 12-24 12-38s-5-31-12-38c-15-15-61-15-76 0-7 7-12 24-12 38s5 31 12 38 24 12 38 12 31-5 38-12z"/></g></svg>